<svg id="Layer_1" data-name="Layer 1" xmlns="http://www.w3.org/2000/svg" viewBox="0 0 360 360"><defs><style>.cls-1{fill:#492b0f;}</style></defs><path class="cls-1" d="M135.57,59.78A154.51,154.51,0,0,0,61,99q118.82-62.86,237.57.16c-3.06-4.58-23.83-19.65-34.35-25-12.69-6.49-26.13-10.89-40.15-14.42,1.21-2.45,2.19-4.75,3.5-6.84.35-.56,1.76-.73,2.64-.65a138.24,138.24,0,0,1,39.14,10.14,179.57,179.57,0,0,1,37,20.46A10.21,10.21,0,0,1,309,85.65c9.44,15.28,16.44,31.7,22.5,48.54a401.26,401.26,0,0,1,19.9,81.71c1.91,14,3,28.21,4.54,42.32a4.36,4.36,0,0,1-1.35,3.72c-17.41,19.21-38.91,31.81-63.52,39.4a156.41,156.41,0,0,1-37.21,6.9,3.16,3.16,0,0,1-3.11-1.48c-3.82-5.22-7.73-10.37-11.86-15.87,26.49-9.38,49.17-24.18,67.56-45.37-.46.28-1,.53-1.38.85-25,18.39-53.05,29.61-83.59,34.59a262.1,262.1,0,0,1-71.7,1.59c-31.35-3.51-60.54-13.11-87-30.47q-2.49-1.64-4.93-3.33c-1.61-1.12-3.19-2.27-4.9-3.23C71.4,266.58,94,281.44,120.67,290.86c-1.25,1.7-2.35,3.21-3.48,4.71-2.86,3.83-5.69,7.69-8.65,11.45a3.19,3.19,0,0,1-2.3,1.16c-39.47-3-74-16.83-101.29-46.42a4.9,4.9,0,0,1-1.29-3.24c2.16-33.34,7.13-66.22,16.19-98.42C26.58,136.18,35.24,113,47.2,91.16a32.05,32.05,0,0,1,11-12C78.14,66.31,99.51,57.09,123,53.11c2.39-.41,4.8-.75,7.21-1a2.38,2.38,0,0,1,1.91.84C133.34,55.08,134.34,57.29,135.57,59.78Zm20.28,137c-.13-7.76-2-14.46-6.1-20.47-10.38-15.15-30.3-16.37-42.1-2.59-11.27,13.15-10.57,34.19,1.54,46.56a25.36,25.36,0,0,0,34.95,1.87C152.17,215.41,155.49,206.48,155.85,196.77Zm48-2.11c0,8.7,1.91,15.32,6,21.28,10.24,15.05,29.85,16.5,41.8,3.1,11.68-13.09,11.11-34.59-1.24-47.06-9.85-9.95-24.67-10.62-35.29-1.44A32.25,32.25,0,0,0,203.85,194.66Z"/></svg>