<svg id="Layer_1" data-name="Layer 1" xmlns="http://www.w3.org/2000/svg" viewBox="0 0 360 360"><defs><style>.cls-1{fill:#492b0f;}</style></defs><path class="cls-1" d="M30.16,274.27h0A177,177,0,1,1,348.48,125.58c1.43,7.93-.84,15.26-6.29,22a275.44,275.44,0,0,1-48.27,46.59c-3.31,2.51-7,8-10.09,6.55-4-1.88-1.58-8.05-1.6-12.31-.17-29.68-.06-59.37-.11-89.07,0-13.44-5.34-18.73-18.7-18.77-6.47,0-12.92-.07-19.39,0-11,.13-16.88,5.88-16.89,16.84q-.09,60.6,0,121.18c0,14.94-1.48,16.89-15.23,22.38-4.37,1.76-5.21.4-5.19-3.72.11-17.57,0-35.13,0-52.71,0-16.15.05-32.31,0-48.47q-.09-17.46-17.46-17.77c-6.47-.12-12.93-.06-19.39,0-12.62.1-18.64,6-18.66,18.59-.1,36.56,0,73.11,0,109.67,0,12.69-2.22,15.27-14.45,18.4-4.24,1.08-5.39-.16-5.36-4.23.12-12.73,0-25.45,0-38.17,0-15.76.05-31.51,0-47.26-.07-13.09-5.68-18.81-18.8-19.22-6.26-.19-12.52-.21-18.78-.18-12,.09-18,5.93-18,17.91-.07,29.28,0,58.58,0,87.86,0,11.93-2.89,15.15-14.91,16.82C45.06,280.72,36.73,280.34,30.16,274.27Z"/><path class="cls-1" d="M357,180A177,177,0,0,1,77.17,324.08a3.65,3.65,0,0,1,0-.58,557.26,557.26,0,0,0,60.44-12.6c66.05-18,126.59-46.51,177.29-93.63a293.35,293.35,0,0,0,38.7-44c.94-1.31,1.46-3.28,3.08-4Q357,174.62,357,180Z"/></svg>