<svg xmlns="http://www.w3.org/2000/svg" xmlns:xlink="http://www.w3.org/1999/xlink" width="324.68" height="324.68" viewBox="0 0 324.68 324.68">
  <defs>
    <clipPath id="clip-path">
      <rect id="Rectangle_606" data-name="Rectangle 606" width="324.68" height="324.68" fill="none"/>
    </clipPath>
  </defs>
  <g id="Mushrohms_Logo" data-name="Mushrohms Logo" clip-path="url(#clip-path)">
    <path id="Path_6" data-name="Path 6" d="M126.74,121.03v113.1a28.6,28.6,0,0,1-57.21,0V121.03a28.6,28.6,0,0,1,57.21,0"/>
    <path id="Path_7" data-name="Path 7" d="M190.94,121.03v113.1a28.6,28.6,0,1,1-57.2,0V121.03a28.6,28.6,0,1,1,57.2,0"/>
    <path id="Path_8" data-name="Path 8" d="M255.15,121.03v113.1a28.6,28.6,0,0,1-57.21,0V121.03a28.6,28.6,0,0,1,57.21,0"/>
    <path id="Path_9" data-name="Path 9" d="M98.136,266.228h0a32.1,32.1,0,0,1-32.1-32.1V121.035a32.1,32.1,0,1,1,64.2,0V234.126a32.1,32.1,0,0,1-32.1,32.1" fill="#f6f7f7"/>
    <path id="Path_10" data-name="Path 10" d="M226.544,266.228h0a32.1,32.1,0,0,1-32.1-32.1V121.035a32.1,32.1,0,1,1,64.2,0V234.126a32.1,32.1,0,0,1-32.1,32.1" fill="#f6f7f7"/>
    <path id="Path_11" data-name="Path 11" d="M162.34,266.228h0a32.1,32.1,0,0,1-32.1-32.1V121.035a32.1,32.1,0,1,1,64.2,0V234.126a32.1,32.1,0,0,1-32.1,32.1" fill="#f6f7f7"/>
    <path id="Path_12" data-name="Path 12" d="M162.34,0A162.34,162.34,0,1,0,324.68,162.34,162.337,162.337,0,0,0,162.34,0m-35.6,234.13a28.6,28.6,0,0,1-57.21,0V121.03a28.6,28.6,0,0,1,57.21,0Zm64.2,0a28.6,28.6,0,1,1-57.2,0V121.03a28.6,28.6,0,1,1,57.2,0Zm64.21,0a28.6,28.6,0,0,1-57.21,0V121.03a28.6,28.6,0,0,1,57.21,0Z" fill="#c42126"/>
    <path id="Path_13" data-name="Path 13" d="M185.432,68.07h-15.34V44.034a7.764,7.764,0,1,0-15.529,0V68.07H139.249v-9.9h5.409V44.034a17.668,17.668,0,0,1,35.337,0V58.167h5.437Z" fill="#f6f7f7"/>
  </g>
</svg>
