<svg id="Layer_1" data-name="Layer 1" xmlns="http://www.w3.org/2000/svg" viewBox="0 0 360 360"><defs><style>.cls-1{fill:#492b0f;}.cls-2{fill:#f6f7f7;}</style></defs><circle class="cls-1" cx="179.5" cy="180" r="177"/><path class="cls-2" d="M196.91,92.65c15.71,11.71,29.51,24.65,39.11,41.55.39.68.77,1.37,1.14,2.06,7.39,13.65,7,27-1.33,40.16a131.21,131.21,0,0,1-20.38,24.33,8.16,8.16,0,0,1-6.38,2.3c-3.87-.11-7.75,0-11.87,0v19.26c8,.32,15.78.65,23.54-.2a14.64,14.64,0,0,0,8.24-4.3c2.29-2.15,4.85-4.09,6.8-6.52,3.24-4,7.43-6,12.28-7.31,14.76-4.08,29.43-8.43,44.14-12.68,1.29-.37,2.52-1.22,4.26-.27,1.17,4.19.48,8.64.41,13.23-2.16,1.13-4.2,2.27-6.31,3.3-8.14,4-14.79,9.47-19.39,17.45-3.34,5.78-7.05,11.34-10.78,16.88a101.55,101.55,0,0,1-7.13,9.38C246.64,259,238.31,263.07,228,263c-29.5-.06-59,0-88.49-.05-15.28-.05-29-4.66-40.54-14.94C86.14,236.61,79.5,222.16,78.86,205c0-1.14-.28-2.36.81-3.75h52.91c1.22,2.3.7,4.53,1.17,6.62,2,8.76,8.52,14.44,17.51,14.61,8.24.16,16.5,0,25.51,0a191.18,191.18,0,0,0-.05-19.29l-25.42-.39c-1.21-2.51.08-3.68.91-4.92A221.08,221.08,0,0,0,165.47,175c6.07-11.92,7-24.4,4.82-37.3-3-17.81-9.71-34.29-17.82-50.29-.92-1.84-2.24-3.56-2.58-6.27,9.27,1.52,17.64,4.85,26.6,6.55.85-3.15.35-6.1.45-9a15.47,15.47,0,0,1,.8-5.79,10.19,10.19,0,0,1,10.84-6.35,9.74,9.74,0,0,1,8.28,9.36C197.07,81.57,196.91,87.27,196.91,92.65Z"/><path class="cls-2" d="M140.3,105c.39.27.62.35.7.5,7.15,15,12.62,30.34,12.24,47.25a27.28,27.28,0,0,1-2,9.13,126.55,126.55,0,0,1-8.08,16.29,4.79,4.79,0,0,1-4.66,2.84c-14.91-.1-29.82-.07-44.73-.12a5.46,5.46,0,0,1-1.56-.49c-.9-1.63.19-2.7.9-3.81q21.94-34.46,43.95-68.87C137.79,106.63,138.35,105.27,140.3,105Z"/></svg>