<svg xmlns="http://www.w3.org/2000/svg" xmlns:xlink="http://www.w3.org/1999/xlink" width="77.68" height="62.372" viewBox="0 0 77.68 62.372">
  <defs>
    <clipPath id="clip-path">
      <path id="Rectangle_604" data-name="Rectangle 604" d="M0,0H77.68l-.363,62.372H.273Z" fill="rgba(0,0,0,0)"/>
    </clipPath>
  </defs>
  <g id="Twitter_Logo" data-name="Twitter Logo" clip-path="url(#clip-path)">
    <path id="Path_4" data-name="Path 4" d="M.243,55.572a36.222,36.222,0,0,0,6.333.049,31.72,31.72,0,0,0,5.98-1.068,31.141,31.141,0,0,0,5.638-2.2A34.433,34.433,0,0,0,23.5,49.021a18.436,18.436,0,0,1-2.458-.282A16.544,16.544,0,0,1,18.7,48.13a15.825,15.825,0,0,1-2.214-.949,16.581,16.581,0,0,1-3.961-2.9,15.35,15.35,0,0,1-1.57-1.825A15.584,15.584,0,0,1,9.689,40.4a17.113,17.113,0,0,1-.975-2.29q.9.151,1.79.214a16.177,16.177,0,0,0,1.765.029,14.766,14.766,0,0,0,1.746-.172,14.361,14.361,0,0,0,1.733-.388,18.886,18.886,0,0,1-3.374-1.152,16,16,0,0,1-2.934-1.724,15.44,15.44,0,0,1-2.482-2.312,17.182,17.182,0,0,1-2.019-2.916A14.746,14.746,0,0,1,3.52,26.08a15.726,15.726,0,0,1-.349-1.919,17.734,17.734,0,0,1-.122-2,18.06,18.06,0,0,0,1.712.791,16.078,16.078,0,0,0,1.754.587,15.129,15.129,0,0,0,3.676.526,18.87,18.87,0,0,1-2.324-1.944,16.21,16.21,0,0,1-1.893-2.236,15.257,15.257,0,0,1-1.438-2.54,16,16,0,0,1-.959-2.857A16.6,16.6,0,0,1,3.147,11.5a15.16,15.16,0,0,1,.134-2.914,15.415,15.415,0,0,1,.691-2.841A17.378,17.378,0,0,1,5.216,2.979,51.48,51.48,0,0,0,12.175,9.72a44.975,44.975,0,0,0,7.8,5.007A44.58,44.58,0,0,0,28.622,18a50.256,50.256,0,0,0,9.512,1.541c-.026-.309-.057-.612-.088-.91s-.063-.592-.092-.883-.055-.579-.074-.866-.032-.572-.034-.858a16.017,16.017,0,0,1,.9-5.463,15.683,15.683,0,0,1,6.67-8.216,15.94,15.94,0,0,1,5.2-2,17.43,17.43,0,0,1,4-.333,14.918,14.918,0,0,1,3.74.611A15.159,15.159,0,0,1,61.827,2.16a18.145,18.145,0,0,1,3.182,2.448,1.694,1.694,0,0,0,.241.2.939.939,0,0,0,.24.115.882.882,0,0,0,.262.037,1.437,1.437,0,0,0,.305-.037q1.206-.265,2.38-.615t2.315-.784q1.141-.435,2.25-.955t2.185-1.127l.077-.043.085-.046.1-.053.123-.066A17.275,17.275,0,0,1,74.4,3.867a15.766,15.766,0,0,1-1.551,2.31,16.022,16.022,0,0,1-1.928,2,18.053,18.053,0,0,1-2.3,1.7A4.62,4.62,0,0,0,70,9.776c.641-.11,1.436-.288,2.3-.514s1.8-.5,2.716-.792,1.821-.615,2.624-.937l-.087.132-.077.116-.07.1-.068.1q-.754,1.056-1.579,2.044t-1.722,1.9q-.9.916-1.869,1.759t-2.02,1.61a1.276,1.276,0,0,0-.211.189.824.824,0,0,0-.132.2.9.9,0,0,0-.068.231,1.643,1.643,0,0,0-.018.273,50.681,50.681,0,0,1-.834,9.731A44.194,44.194,0,0,1,61.739,43.1a50.315,50.315,0,0,1-6.306,7.428,40.819,40.819,0,0,1-4.648,3.909A40.245,40.245,0,0,1,45.7,57.551a42.218,42.218,0,0,1-5.49,2.351,46.729,46.729,0,0,1-5.876,1.615q-1.046.217-2.1.388t-2.107.283q-1.057.112-2.121.157t-2.136.009q-.344-.012-.688-.018T24.5,62.33q-.344,0-.689.006t-.688.019c-.729.027-1.454.022-2.176-.011s-1.441-.093-2.157-.176-1.43-.189-2.142-.314-1.422-.267-2.13-.424q-1.857-.41-3.653-.968T7.331,59.2q-1.738-.7-3.417-1.55t-3.3-1.833l-.073-.046-.08-.054-.1-.065-.119-.08" fill="#492b0f"/>
  </g>
</svg>
